<svg width="210" height="240" viewBox="0 0 210 240" fill="none" xmlns="http://www.w3.org/2000/svg">
<path d="M105.369 20.7009C49.2933 20.7009 3.6731 66.3218 3.6731 122.394C3.6731 178.469 49.2939 224.088 105.369 224.088C161.443 224.088 207.062 178.468 207.062 122.394C207.062 66.3218 161.443 20.7009 105.369 20.7009Z" fill="#F26A59"/>
<path d="M105.369 18.0072C47.8067 18.0072 0.978516 64.8368 0.978516 122.394C0.978516 179.953 47.8067 226.781 105.369 226.781C162.927 226.781 209.756 179.953 209.756 122.394C209.756 64.8368 162.927 18.0072 105.369 18.0072ZM105.369 224.088C49.2931 224.088 3.67292 178.469 3.67292 122.395C3.67292 66.3218 49.2938 20.7016 105.369 20.7016C161.443 20.7016 207.062 66.3224 207.062 122.395C207.062 178.469 161.443 224.088 105.369 224.088Z" fill="black"/>
<path d="M121.417 3.12811H58.4686C56.7033 5.15043 54.5615 6.82035 52.1994 8.01505C52.4357 9.35525 52.5572 10.7055 52.5572 12.0403C52.5572 23.5955 44.1803 33.2686 32.888 34.9959C32.3461 39.5878 28.3468 43.1352 23.6061 43.0144V178.273C23.6061 179.038 24.2301 179.659 24.9977 179.659H121.417C122.183 179.659 122.804 179.038 122.804 178.273V4.51503C122.804 3.75083 122.183 3.12811 121.417 3.12811ZM113.445 68.1338C114.19 68.1338 114.793 68.7345 114.793 69.4807C114.793 70.2255 114.191 70.8289 113.445 70.8289H91.5378V130.023C91.5378 130.766 90.9351 131.369 90.1902 131.369C89.446 131.369 88.8433 130.767 88.8433 130.023V70.8289H64.1838V111.889C64.1838 112.635 63.5811 113.237 62.8363 113.237C62.0914 113.237 61.4887 112.635 61.4887 111.889V70.8289H44.3485V163.183C44.3485 163.927 43.7465 164.531 43.0009 164.531C42.2567 164.531 41.6541 163.928 41.6541 163.183V70.8282H29.3206C28.5758 70.8282 27.9737 70.2255 27.9737 69.48C27.9737 68.7345 28.5758 68.1331 29.3206 68.1331H41.6541V47.603C41.6541 46.8575 42.2567 46.2561 43.0009 46.2561C43.7465 46.2561 44.3485 46.8568 44.3485 47.603V68.1331H61.4887V43.5009C61.4887 42.7554 62.0914 42.1528 62.8363 42.1528C63.5805 42.1528 64.1838 42.7548 64.1838 43.5009V68.1331H88.8433V37.3172H50.7525C50.0076 37.3172 49.4056 36.7146 49.4056 35.9704C49.4056 35.2255 50.0076 34.6228 50.7525 34.6228H88.8433V15.4589C88.8433 14.7147 89.446 14.112 90.1902 14.112C90.9351 14.112 91.5378 14.7141 91.5378 15.4589V34.6228H113.445C114.19 34.6228 114.793 35.2248 114.793 35.9704C114.793 36.7139 114.191 37.3172 113.445 37.3172H91.5378V68.1331H113.445V68.1338Z" fill="#AE8F30"/>
<path d="M113.446 37.3179C114.19 37.3179 114.793 36.7152 114.793 35.971C114.793 35.2262 114.191 34.6235 113.446 34.6235H91.5378V15.4596C91.5378 14.7154 90.9351 14.1127 90.1902 14.1127C89.4461 14.1127 88.8434 14.7147 88.8434 15.4596V34.6235H50.7525C50.0076 34.6235 49.4056 35.2255 49.4056 35.971C49.4056 36.7145 50.0076 37.3179 50.7525 37.3179H88.8434V68.1338H64.1838V43.5016C64.1838 42.7561 63.5811 42.1534 62.8363 42.1534C62.0914 42.1534 61.4888 42.7555 61.4888 43.5016V68.1338H44.3485V47.6037C44.3485 46.8582 43.7465 46.2568 43.0009 46.2568C42.2568 46.2568 41.6541 46.8575 41.6541 47.6037V68.1338H29.3206C28.5758 68.1338 27.9738 68.7345 27.9738 69.4807C27.9738 70.2256 28.5758 70.8289 29.3206 70.8289H41.6541V163.183C41.6541 163.927 42.2568 164.531 43.0009 164.531C43.7465 164.531 44.3485 163.928 44.3485 163.183V70.8282H61.4888V111.889C61.4888 112.634 62.0914 113.237 62.8363 113.237C63.5805 113.237 64.1838 112.635 64.1838 111.889V70.8282H88.8434V130.022C88.8434 130.765 89.4461 131.368 90.1902 131.368C90.9351 131.368 91.5378 130.766 91.5378 130.022V70.8282H113.446C114.19 70.8282 114.793 70.2255 114.793 69.48C114.793 68.7345 114.191 68.1331 113.446 68.1331H91.5378V37.3172H113.446V37.3179Z" fill="#231F20"/>
<path d="M121.417 0.434341H57.8431C57.4399 0.434341 57.0555 0.615907 56.8012 0.92693C54.9958 3.13145 52.6918 4.88812 50.1316 6.01274C49.5416 6.27171 49.2185 6.9111 49.358 7.53915C49.6944 9.03419 49.8633 10.5499 49.8633 12.0403C49.8633 22.6004 41.9489 31.3817 31.4542 32.4636C31.0911 32.5017 30.7594 32.6499 30.5338 32.9375C30.3069 33.2252 30.2075 33.5589 30.2569 33.92C30.2569 37.8865 26.5686 41.0128 22.53 40.1892C22.1382 40.1117 21.7224 40.2092 21.4067 40.4655C21.093 40.7211 20.9115 41.1022 20.9115 41.5087V178.274C20.9115 180.524 22.7456 182.356 24.9975 182.356H121.417C123.667 182.356 125.498 180.524 125.498 178.274V4.51502C125.498 2.26578 123.666 0.434341 121.417 0.434341ZM122.803 178.273C122.803 179.038 122.183 179.659 121.416 179.659H24.9975C24.23 179.659 23.6059 179.038 23.6059 178.273V43.0144C28.3473 43.1359 32.3459 39.5878 32.8879 34.9959C44.1801 33.2686 52.557 23.5962 52.557 12.0403C52.557 10.7054 52.4356 9.35523 52.1993 8.01503C54.562 6.82033 56.7031 5.15041 58.4685 3.1281H121.416C122.183 3.1281 122.803 3.75081 122.803 4.51502V178.273Z" fill="#231F20"/>
<path d="M129.77 88.1988C123.661 87.5347 116.888 89.2486 112.682 92.3095C108.239 95.3663 104.04 96.854 99.8503 96.854C95.0962 96.854 90.2393 95.0299 84.0649 90.9145C82.4971 89.9341 80.6864 89.4356 78.6868 89.4356C73.6564 89.4356 68.094 92.5251 62.8407 95.6793C61.2675 96.5971 59.6103 97.0449 57.7789 97.0449C53.6194 97.0449 49.149 94.6949 44.824 92.4236C42.8218 91.3711 40.7481 90.2818 38.6597 89.4149C30.7192 86.6096 22.2996 87.5561 16.0151 91.9611C15.6547 92.2127 15.4418 92.6239 15.4418 93.063V178.272C15.4418 183.542 19.7273 187.83 24.9967 187.83H121.416C126.686 187.83 130.973 183.541 130.973 178.272V89.5396C130.973 88.8502 130.454 88.2722 129.77 88.1988ZM128.279 178.273C128.279 182.057 125.201 185.137 121.417 185.137H24.9974C21.2144 185.137 18.1369 182.057 18.1369 178.273V93.7798C23.6431 90.2024 30.9916 89.5664 37.6952 91.9284C39.6027 92.7226 41.5316 93.7358 43.5726 94.8084C48.1846 97.2325 52.958 99.7386 57.7802 99.7386C60.0688 99.7386 62.2293 99.1566 64.2156 97.9986C69.1592 95.0299 74.3478 92.1293 78.6888 92.1293C80.1965 92.1293 81.488 92.4804 82.6066 93.1765C89.2155 97.5849 94.5356 99.5484 99.8523 99.5484C104.607 99.5484 109.304 97.9072 114.239 94.51C117.696 91.9958 123.184 90.5241 128.281 90.7817V178.273H128.279Z" fill="#231F20"/>
<path d="M114.237 94.51C109.302 97.9072 104.605 99.5484 99.8502 99.5484C94.5335 99.5484 89.2134 97.5855 82.6045 93.1765C81.4865 92.4803 80.1944 92.1292 78.6867 92.1292C74.3464 92.1292 69.1578 95.0299 64.2135 97.9986C62.2272 99.1566 60.0674 99.7386 57.7781 99.7386C52.9559 99.7386 48.1831 97.2324 43.5705 94.8083C41.5288 93.7358 39.6006 92.7226 37.6931 91.9284C30.9895 89.567 23.6411 90.2024 18.1348 93.7798V178.273C18.1348 182.057 21.2123 185.137 24.9953 185.137H121.415C125.199 185.137 128.277 182.057 128.277 178.273V90.7817C123.182 90.5248 117.694 91.9964 114.237 94.51Z" fill="#85D3E4"/>
<path d="M184.814 118.034L184.064 117.612L184.246 116.767C184.975 113.475 185.346 110.101 185.346 106.753C185.346 81.0526 164.434 60.1427 138.728 60.1427C113.028 60.1427 92.1176 81.0526 92.1176 106.753C92.1176 110.101 92.4833 113.471 93.2068 116.767L93.3937 117.612L92.6415 118.034C87.4482 120.934 84.2225 126.417 84.2225 132.349C84.2225 141.386 91.5729 148.732 100.611 148.732C101.7 148.732 102.831 148.612 103.976 148.371C106.485 147.847 108.853 146.73 110.836 145.141C111.416 144.675 111.963 144.169 112.473 143.632L113.312 142.744L114.157 143.632C117.29 146.924 121.5 148.732 126.023 148.732C130.538 148.732 134.758 146.924 137.885 143.632L138.728 142.744L139.566 143.632C142.7 146.924 146.92 148.732 151.435 148.732C155.955 148.732 160.169 146.924 163.304 143.632L164.147 142.744L164.982 143.632C165.502 144.177 166.052 144.679 166.625 145.141C168.602 146.73 170.977 147.847 173.482 148.371C174.627 148.612 175.758 148.732 176.844 148.732C185.887 148.732 193.236 141.386 193.236 132.349C193.236 126.413 190.01 120.934 184.814 118.034ZM122.624 77.4331C111.926 83.3192 105.28 94.5561 105.28 106.753C105.28 110.828 106.003 114.804 107.424 118.565C107.656 119.163 107.351 119.836 106.751 120.067C106.611 120.116 106.475 120.143 106.34 120.143C105.867 120.143 105.43 119.854 105.252 119.392C103.732 115.364 102.963 111.111 102.963 106.753C102.963 93.7104 110.061 81.6927 121.498 75.3968C122.055 75.0918 122.763 75.294 123.076 75.8573C123.387 76.4226 123.181 77.1241 122.624 77.4331ZM150.851 74.3082C150.688 74.7934 150.241 75.1065 149.749 75.1065C149.635 75.1065 149.509 75.0778 149.383 75.0384C143.508 73.0655 137 72.7805 131.022 74.1974C130.399 74.3609 129.769 73.9665 129.622 73.3351C129.475 72.7097 129.859 72.089 130.488 71.9395C136.883 70.4218 143.837 70.7255 150.125 72.8439C150.733 73.0408 151.059 73.7009 150.851 74.3082Z" fill="#EA9BC3"/>
<path d="M170.105 149.773C170.057 149.764 170.009 149.745 169.955 149.722C169.441 149.524 168.941 149.289 168.444 149.042C168.355 148.996 168.265 148.95 168.181 148.907C167.697 148.653 167.225 148.377 166.773 148.094C166.691 148.041 166.62 147.991 166.545 147.938C166.071 147.624 165.608 147.304 165.171 146.953C164.819 146.674 164.476 146.373 164.147 146.068C160.667 149.291 156.203 151.054 151.435 151.054C146.668 151.054 142.2 149.291 138.727 146.068C135.257 149.291 130.79 151.054 126.023 151.054C121.258 151.054 116.788 149.291 113.315 146.068C112.983 146.373 112.644 146.666 112.291 146.953C111.846 147.308 111.381 147.635 110.905 147.944C110.836 147.991 110.768 148.041 110.697 148.088C110.234 148.377 109.758 148.657 109.266 148.911C109.19 148.954 109.108 148.995 109.027 149.032C108.527 149.289 108.014 149.524 107.495 149.725C107.453 149.745 107.408 149.753 107.372 149.772C106.859 149.965 106.343 150.139 105.825 150.292C105.775 150.307 105.736 150.328 105.686 150.341L127.92 221.936C130.882 231.478 134.824 236.95 138.728 236.95C142.633 236.95 146.574 231.478 149.528 221.936L171.773 150.341C171.725 150.327 171.68 150.307 171.638 150.292C171.118 150.14 170.607 149.966 170.105 149.773Z" fill="#F6F193"/>
<path d="M150.124 72.8446C143.837 70.7255 136.883 70.4218 130.487 71.9402C129.858 72.0897 129.474 72.7104 129.622 73.3358C129.768 73.9672 130.398 74.3616 131.021 74.1981C136.999 72.7812 143.507 73.0662 149.382 75.0391C149.508 75.0785 149.635 75.1072 149.748 75.1072C150.24 75.1072 150.687 74.7935 150.85 74.3089C151.059 73.7009 150.732 73.0408 150.124 72.8446Z" fill="#231F20"/>
<path d="M121.497 75.3968C110.06 81.6933 102.962 93.7105 102.962 106.753C102.962 111.11 103.73 115.363 105.251 119.392C105.43 119.854 105.866 120.143 106.34 120.143C106.474 120.143 106.611 120.116 106.75 120.067C107.349 119.836 107.654 119.163 107.424 118.565C106.003 114.803 105.279 110.828 105.279 106.753C105.279 94.5567 111.925 83.3199 122.623 77.4332C123.18 77.1241 123.386 76.422 123.075 75.858C122.762 75.2941 122.055 75.0918 121.497 75.3968Z" fill="#231F20"/>
<path d="M186.69 116.447C187.337 113.25 187.661 109.996 187.661 106.753C187.661 79.7665 165.711 57.8181 138.728 57.8181C111.748 57.8181 89.7969 79.7672 89.7969 106.753C89.7969 109.985 90.1233 113.241 90.7653 116.447C85.2717 119.846 81.9019 125.865 81.9019 132.349C81.9019 143.571 91.8285 152.653 103.41 150.833L125.705 222.625C129.036 233.36 133.664 239.268 138.728 239.268C143.793 239.268 148.423 233.36 151.748 222.625L174.054 150.813C175.004 150.958 175.94 151.053 176.845 151.053C187.166 151.053 195.559 142.666 195.559 132.349C195.559 125.865 192.181 119.846 186.69 116.447ZM149.528 221.936C146.573 231.479 142.632 236.95 138.728 236.95C134.823 236.95 130.882 231.479 127.919 221.936L105.685 150.341C105.735 150.328 105.775 150.308 105.825 150.293C106.343 150.14 106.858 149.966 107.372 149.773C107.408 149.754 107.453 149.745 107.494 149.725C108.013 149.524 108.526 149.289 109.026 149.033C109.108 148.996 109.19 148.956 109.265 148.912C109.758 148.657 110.233 148.377 110.697 148.089C110.768 148.041 110.836 147.991 110.904 147.945C111.38 147.636 111.846 147.308 112.291 146.953C112.643 146.667 112.983 146.374 113.314 146.068C116.788 149.292 121.258 151.055 126.022 151.055C130.79 151.055 135.257 149.292 138.727 146.068C142.199 149.292 146.667 151.055 151.435 151.055C156.202 151.055 160.667 149.292 164.147 146.068C164.476 146.374 164.818 146.674 165.17 146.953C165.607 147.304 166.07 147.625 166.544 147.939C166.62 147.992 166.691 148.041 166.772 148.095C167.225 148.378 167.696 148.653 168.181 148.908C168.264 148.951 168.354 148.996 168.443 149.042C168.94 149.289 169.441 149.525 169.954 149.723C170.009 149.746 170.056 149.765 170.104 149.773C170.606 149.967 171.117 150.14 171.637 150.293C171.679 150.309 171.724 150.329 171.771 150.342L149.528 221.936ZM176.845 148.732C175.759 148.732 174.627 148.612 173.483 148.371C170.978 147.847 168.602 146.73 166.626 145.141C166.053 144.679 165.503 144.178 164.982 143.632L164.148 142.745L163.304 143.632C160.171 146.924 155.955 148.732 151.436 148.732C146.921 148.732 142.701 146.924 139.567 143.632L138.728 142.745L137.886 143.632C134.758 146.924 130.537 148.732 126.024 148.732C121.5 148.732 117.291 146.924 114.157 143.632L113.312 142.745L112.473 143.632C111.964 144.17 111.416 144.675 110.837 145.141C108.854 146.73 106.485 147.847 103.976 148.371C102.832 148.612 101.701 148.732 100.611 148.732C91.5736 148.732 84.2232 141.386 84.2232 132.349C84.2232 126.417 87.4489 120.934 92.6421 118.034L93.3943 117.612L93.2074 116.768C92.484 113.472 92.1182 110.101 92.1182 106.753C92.1182 81.0527 113.029 60.1428 138.728 60.1428C164.435 60.1428 185.346 81.0527 185.346 106.753C185.346 110.101 184.975 113.475 184.247 116.768L184.065 117.612L184.815 118.034C190.011 120.934 193.237 126.413 193.237 132.349C193.236 141.386 185.887 148.732 176.845 148.732Z" fill="#231F20"/>
</svg>
