<svg width="210" height="300" viewBox="0 0 210 300" fill="none" xmlns="http://www.w3.org/2000/svg">
<path d="M104.975 86.3748C48.9038 86.3748 3.28833 131.996 3.28833 188.072C3.28833 244.143 48.9038 289.759 104.975 289.759C161.051 289.759 206.672 244.143 206.672 188.072C206.672 131.995 161.051 86.3748 104.975 86.3748Z" fill="#F6F193"/>
<path d="M104.974 83.681C47.42 83.681 0.59375 130.511 0.59375 188.072C0.59375 245.628 47.42 292.454 104.974 292.454C162.538 292.454 209.367 245.628 209.367 188.072C209.367 130.511 162.538 83.681 104.974 83.681ZM104.974 289.759C48.9037 289.759 3.2882 244.143 3.2882 188.072C3.2882 131.995 48.9037 86.3748 104.974 86.3748C161.051 86.3748 206.671 131.996 206.671 188.072C206.671 244.143 161.051 289.759 104.974 289.759Z" fill="black"/>
<path d="M92.9815 106.132C92.7906 105.954 83.293 96.9362 63.7774 97.6957C62.9084 97.6657 62.1582 97.6557 61.428 97.6557C43.4361 97.6557 34.6641 105.957 34.5787 106.043C22.1177 115.985 24.4998 134.511 24.5265 134.697L26.2117 142.494L65.2431 150.528C66.3597 150.783 68.2058 152.101 68.2699 155.432C68.2065 156.719 67.4009 159.071 64.7792 159.456L30.6949 163.372L44.751 228.849L61.2198 232.238C62.3384 232.496 64.1899 233.807 64.268 237.137C64.1999 238.429 63.3836 240.781 60.7673 241.166L47.7177 242.658L57.6704 289.007C60.1639 296.862 63.142 297.09 63.4717 297.09L63.8114 297.018L64.015 297.104L64.0023 297.094C64.3367 297.094 67.3101 296.862 69.8216 288.901L87.859 204.861L59.4097 201.585C56.8154 201.217 56.0265 198.916 55.9624 197.75C56.0205 194.418 57.8286 193.128 58.8938 192.875L91.8896 186.09L102.956 134.6C102.956 134.514 105.315 115.968 92.9815 106.132Z" fill="#FED30F"/>
<path d="M94.7675 104.112C94.3864 103.735 85.1986 94.9559 66.0347 94.9559C65.2605 94.9559 64.4842 94.9693 63.7774 94.9993C43.0163 94.2351 33.0883 103.727 32.796 104.021C19.2485 114.822 21.7473 134.246 21.8715 135.168L23.9452 144.784L64.6037 153.148C64.6398 153.161 65.5361 153.491 65.5735 155.393C65.5735 155.44 65.5027 156.622 64.4302 156.773L27.4312 161.03L42.4811 231.135L60.5851 234.858C60.6218 234.872 61.5229 235.202 61.5669 237.092C61.5669 237.143 61.4895 238.331 60.4216 238.487L44.4553 240.32L55.0695 289.7C57.9474 298.808 61.91 299.791 63.4724 299.791H64.0024C65.5708 299.791 69.516 298.812 72.4226 289.589L91.12 202.522L59.7522 198.911C58.8238 198.777 58.6776 197.864 58.6576 197.703C58.6936 195.817 59.5366 195.405 59.4759 195.509L94.1582 188.377L105.601 135.066C105.718 134.25 108.21 114.822 94.7675 104.112ZM102.956 134.599L91.8896 186.089L58.8939 192.875C57.8293 193.127 56.0212 194.418 55.9625 197.749C56.0266 198.915 56.8155 201.217 59.4098 201.585L87.859 204.86L69.8217 288.9C67.3101 296.862 64.3367 297.094 64.0024 297.094L64.015 297.104L63.8115 297.018L63.4718 297.09C63.1421 297.09 60.164 296.862 57.6705 289.007L47.7177 242.658L60.7673 241.166C63.3837 240.78 64.1999 238.429 64.268 237.137C64.1892 233.807 62.3385 232.495 61.2198 232.237L44.7503 228.848L30.6942 163.371L64.7786 159.455C67.4002 159.069 68.2058 156.719 68.2692 155.432C68.2058 152.101 66.359 150.782 65.2424 150.527L26.2111 142.494L24.5259 134.696C24.4992 134.51 22.1171 115.985 34.578 106.042C34.6635 105.957 43.4355 97.655 61.4274 97.655C62.1576 97.655 62.9078 97.665 63.7768 97.6951C83.2924 96.9355 92.7906 105.953 92.9808 106.131C105.315 115.968 102.956 134.514 102.956 134.599Z" fill="black"/>
<path d="M65.0777 0H62.3806V82.1353H65.0777V0Z" fill="black"/>
<path d="M82.5484 23.005L79.8786 22.6239L71.4016 81.943L74.0767 82.3228L82.5484 23.005Z" fill="black"/>
<path d="M82.4848 82.5718L94.2222 48.6777L91.6673 47.7927L79.9319 81.6915L82.4848 82.5718Z" fill="black"/>
<path d="M56.0529 81.9186L47.5801 22.6026L44.9063 22.9845L53.3791 82.3005L56.0529 81.9186Z" fill="black"/>
<path d="M47.5236 81.6915L35.7922 47.7927L33.2446 48.6777L44.9754 82.5718L47.5236 81.6915Z" fill="black"/>
<path d="M181.277 185.204C173.609 178.865 164.343 175.521 154.465 175.521C146.113 175.521 138.899 177.847 134.314 179.795L133.872 179.983L133.429 179.795C128.848 177.847 121.628 175.521 113.281 175.521C103.261 175.521 94.2878 178.736 86.6056 185.084C84.6274 186.67 67.6199 201.607 75.8987 240.109L75.9989 240.537C77.1835 245.08 88.3617 285.202 115.402 286.624L116.208 286.638C118.977 286.638 126.253 286.235 133.344 282.479L133.872 282.201L134.402 282.479C141.48 286.227 148.751 286.638 151.548 286.638L152.375 286.62C179.368 285.202 190.559 245.08 191.746 240.511L191.844 240.092C200.129 201.594 183.232 186.769 181.277 185.204Z" fill="#F26A59"/>
<path d="M136.382 136.718C132.535 130.857 124.855 127.714 113.547 127.37C112.714 130.704 110.347 142.506 116.129 150.339C119.836 155.356 126.269 157.902 135.253 157.903C135.256 157.903 135.256 157.903 135.259 157.903C135.945 157.903 136.647 157.888 137.369 157.857C138.365 155.021 141.492 144.501 136.382 136.718Z" fill="#619741"/>
<path d="M182.699 183.456C174.633 176.792 164.871 173.268 154.465 173.268C146.618 173.268 139.774 175.222 134.998 177.095H134.006C134.227 175.337 137.083 155.234 152.255 143.617C152.804 143.197 152.907 142.412 152.489 141.864C152.066 141.314 151.282 141.212 150.735 141.631C146.976 144.509 143.946 147.843 141.496 151.29C142.105 146.542 141.866 140.52 138.482 135.358C134.046 128.587 125.343 125.051 112.615 124.845L111.676 124.831L111.401 125.727C111.2 126.372 106.605 141.637 114.113 151.814C118.314 157.512 125.427 160.401 135.254 160.403C135.257 160.403 135.257 160.403 135.26 160.403C135.605 160.403 135.958 160.395 136.309 160.387C132.77 168.233 131.74 175.066 131.542 176.639C126.845 174.918 120.489 173.268 113.282 173.268C102.725 173.268 93.2631 176.657 85.1918 183.335C83.1081 185.002 65.1362 200.761 73.7007 240.609L73.8182 241.079C75.0416 245.814 86.6475 287.367 115.322 288.872L116.179 288.89C119.077 288.89 126.498 288.479 133.873 284.742C141.241 288.479 148.671 288.89 151.564 288.89H151.578L152.462 288.872C181.09 287.367 192.695 245.815 193.934 241.058L194.046 240.587C202.617 200.738 184.751 185.097 182.699 183.456ZM135.259 157.903C135.256 157.903 135.256 157.903 135.254 157.903C126.27 157.902 119.835 155.356 116.13 150.339C110.347 142.507 112.715 130.705 113.548 127.37C124.855 127.714 132.536 130.857 136.382 136.718C141.492 144.501 138.365 155.021 137.37 157.857C136.647 157.887 135.946 157.903 135.259 157.903ZM191.845 240.093L191.747 240.512C190.56 245.08 179.37 285.202 152.376 286.621L151.549 286.639C148.752 286.639 141.482 286.228 134.403 282.48L133.873 282.202L133.345 282.48C126.254 286.235 118.979 286.639 116.209 286.639L115.403 286.625C88.3628 285.202 77.1847 245.08 76 240.538L75.8999 240.11C67.6211 201.607 84.6279 186.671 86.6068 185.084C94.2889 178.736 103.263 175.522 113.283 175.522C121.63 175.522 128.848 177.847 133.43 179.796L133.874 179.984L134.315 179.796C138.901 177.847 146.115 175.522 154.466 175.522C164.344 175.522 173.61 178.866 181.278 185.205C183.231 186.769 200.129 201.594 191.845 240.093Z" fill="black"/>
</svg>
