<svg width="33" height="33" viewBox="0 0 27 27" fill="none" xmlns="http://www.w3.org/2000/svg">
<path d="M13.5 0C6.05631 0 0 6.05579 0 13.5C0 20.9442 6.05631 27 13.5 27C20.9437 27 27 20.9442 27 13.5C27 6.05579 20.9437 0 13.5 0ZM13.5 25.9615C6.62902 25.9615 1.03846 20.371 1.03846 13.5C1.03846 6.62902 6.62902 1.03846 13.5 1.03846C20.371 1.03846 25.9615 6.62902 25.9615 13.5C25.9615 20.371 20.371 25.9615 13.5 25.9615Z" fill="black"/>
<path d="M19.9904 12.9808H14.0192V7.26923C14.0192 6.9821 13.7866 6.75 13.5 6.75C13.2134 6.75 12.9808 6.9821 12.9808 7.26923V12.9808H7.00962C6.723 12.9808 6.49039 13.2129 6.49039 13.5C6.49039 13.7871 6.723 14.0192 7.00962 14.0192H12.9808V20.25C12.9808 20.5371 13.2134 20.7692 13.5 20.7692C13.7866 20.7692 14.0192 20.5371 14.0192 20.25V14.0192H19.9904C20.277 14.0192 20.5096 13.7871 20.5096 13.5C20.5096 13.2129 20.277 12.9808 19.9904 12.9808Z" fill="black"/>
</svg>
