<svg width="27" height="27" viewBox="0 0 27 27" fill="none" xmlns="http://www.w3.org/2000/svg">
<path d="M6.75 15.75H20.25C20.4169 15.75 20.5699 15.6577 20.6478 15.5101C20.7261 15.363 20.7157 15.1844 20.6217 15.0467L13.8717 5.14665C13.7038 4.9005 13.2961 4.9005 13.1283 5.14665L6.3783 15.0467C6.28425 15.1848 6.27435 15.363 6.3522 15.5101C6.43005 15.6577 6.58305 15.75 6.75 15.75ZM13.5 6.19875L19.3981 14.85H7.60185L13.5 6.19875Z" fill="black"/>
<path d="M13.5 0C6.0561 0 0 6.0561 0 13.5C0 20.9439 6.0561 27 13.5 27C20.9439 27 27 20.9439 27 13.5C27 6.0561 20.9439 0 13.5 0ZM13.5 26.1C6.55245 26.1 0.9 20.4475 0.9 13.5C0.9 6.55245 6.55245 0.9 13.5 0.9C20.4475 0.9 26.1 6.55245 26.1 13.5C26.1 20.4475 20.4475 26.1 13.5 26.1Z" fill="black"/>
<path d="M6.3 20.25H20.7V17.1H6.3V20.25ZM7.2 18H19.8V19.35H7.2V18Z" fill="black"/>
</svg>
