<svg width="217" height="222" viewBox="0 0 217 222" fill="none" xmlns="http://www.w3.org/2000/svg">
<path d="M108.369 15.1506C52.2933 15.1506 6.6731 60.7715 6.6731 116.848C6.6731 172.918 52.2939 218.535 108.369 218.535C164.443 218.535 210.062 172.918 210.062 116.848C210.062 60.7708 164.443 15.1506 108.369 15.1506Z" fill="#EA9BC3"/>
<path d="M108.369 12.4569C50.8067 12.4569 3.97852 59.2865 3.97852 116.848C3.97852 174.403 50.8067 221.23 108.369 221.23C165.927 221.23 212.756 174.404 212.756 116.848C212.756 59.2865 165.927 12.4569 108.369 12.4569ZM108.369 218.535C52.2931 218.535 6.67292 172.918 6.67292 116.848C6.67292 60.7708 52.2938 15.1507 108.369 15.1507C164.443 15.1507 210.062 60.7715 210.062 116.848C210.062 172.918 164.443 218.535 108.369 218.535Z" fill="black"/>
<path d="M53.6875 92.6013H2.49426V173.747H53.6875V92.6013Z" fill="#85D3E4"/>
<path d="M2.49426 90.1078H54.9336C55.623 90.1078 56.1803 90.6651 56.1803 91.3545V174.993C56.1803 175.682 55.623 176.24 54.9336 176.24H2.49426V204.15H69.2006V57.2308H2.49426V90.1078Z" fill="white"/>
<path d="M102.649 54.7379L78.5151 20.3426L71.9536 54.7379H102.649Z" fill="white"/>
<path d="M76.5962 2.4935H33.2687V15.9676H76.5962V2.4935Z" fill="#F26A59"/>
<path d="M76.3359 18.4605H32.6239L3.82764 54.738H69.4146L74.7294 26.8794L76.3359 18.4605Z" fill="white"/>
<path d="M103.8 57.2308H71.6934V204.15H103.8V57.2308Z" fill="white"/>
<path d="M106.288 55.9313C106.287 55.9046 106.283 55.8799 106.28 55.8532C106.271 55.7718 106.255 55.6937 106.231 55.6176C106.225 55.5943 106.219 55.5722 106.211 55.5495C106.174 55.4514 106.127 55.358 106.069 55.2726C106.068 55.2712 106.067 55.2699 106.067 55.2685L79.0891 16.8199V1.24677C79.0891 0.557979 78.5318 0 77.8424 0H32.022C31.3332 0 30.7752 0.557979 30.7752 1.24677V16.7785L0.270308 55.2085C0.262967 55.2172 0.259629 55.2285 0.252955 55.2372C0.190216 55.3213 0.134815 55.4107 0.0941018 55.5088C0.0927669 55.5142 0.0914295 55.5195 0.0894272 55.5235C0.053386 55.6136 0.0313597 55.7097 0.0173436 55.8085C0.0133391 55.8359 0.0113412 55.8626 0.00933889 55.8899C0.0073366 55.9213 0 55.9513 0 55.9834V91.3538V174.992V205.395C0 206.084 0.557297 206.642 1.24608 206.642H70.4459H105.046C105.735 206.642 106.292 206.084 106.292 205.395V55.9847C106.293 55.966 106.289 55.9493 106.288 55.9313ZM78.5151 20.3426L102.648 54.7379H71.9529L78.5151 20.3426ZM33.2687 2.49352H76.5963V15.9676H33.2687V2.49352ZM2.49419 92.6013H53.6874V173.747H2.49419V92.6013ZM69.2005 204.15H2.49419V176.24H54.9335C55.623 176.24 56.1803 175.683 56.1803 174.993V91.3545C56.1803 90.665 55.623 90.1077 54.9335 90.1077H2.49419V57.2308H69.2005V204.15ZM69.4147 54.7379H3.8277L32.624 18.4605H76.336L74.7301 26.8794L69.4147 54.7379ZM103.801 204.15H71.6933V57.2308H103.8V204.15H103.801Z" fill="black"/>
<path d="M214.246 93.0478C214.246 87.0356 209.352 82.1453 203.339 82.1453H176.02C175.37 95.0394 164.675 105.329 151.621 105.329C138.567 105.329 127.872 95.0394 127.223 82.1453H99.8997C93.8861 82.1453 88.9958 87.0356 88.9958 93.0478V103.661C94.7658 104.285 99.2716 109.183 99.2716 115.115C99.2716 121.046 94.7658 125.945 88.9958 126.567V196.49C88.9958 201.697 92.6333 206.055 97.6431 207.095C98.4006 201.694 103.072 197.507 108.655 197.507C114.374 197.507 119.101 201.84 119.724 207.393H203.339C209.352 207.393 214.246 202.502 214.246 196.49V195.014C203.027 194.367 194.097 185.038 194.097 173.662C194.097 162.286 203.028 152.956 214.246 152.308V128.472C207.429 127.841 202.075 122.09 202.075 115.115C202.075 108.138 207.429 102.389 214.246 101.758V93.0478ZM136.786 182.896C120.587 182.896 107.408 169.717 107.408 153.52C107.408 137.32 120.587 124.142 136.786 124.142C152.983 124.142 166.161 137.32 166.161 153.52C166.161 169.718 152.982 182.896 136.786 182.896Z" fill="#F6F193"/>
<path d="M136.786 124.142C120.587 124.142 107.408 137.32 107.408 153.52C107.408 169.718 120.587 182.896 136.786 182.896C152.983 182.896 166.161 169.717 166.161 153.52C166.161 137.32 152.982 124.142 136.786 124.142ZM136.786 180.403C121.962 180.403 109.901 168.344 109.901 153.52C109.901 138.695 121.962 126.635 136.786 126.635C151.609 126.635 163.668 138.695 163.668 153.52C163.668 168.344 151.609 180.403 136.786 180.403Z" fill="black"/>
<path d="M215.492 104.195H216.738V93.0472C216.738 85.6614 210.728 79.6519 203.338 79.6519H173.56V80.898C173.56 92.9945 163.719 102.836 151.621 102.836C139.524 102.836 129.684 92.9945 129.684 80.898V79.6519H99.8995C92.5131 79.6519 86.5022 85.6614 86.5022 93.0472V106.087H87.749C92.7267 106.087 96.7786 110.137 96.7786 115.115C96.7786 120.092 92.7273 124.142 87.749 124.142H86.5022V196.49C86.5022 203.418 91.7315 209.125 98.6681 209.767L100.011 209.891L100.028 208.54C100.084 203.831 103.952 200.001 108.654 200.001C113.421 200.001 117.299 203.877 117.299 208.64V209.886H203.338C210.728 209.886 216.738 203.879 216.738 196.491V192.557H215.492C205.07 192.557 196.59 184.081 196.59 173.662C196.59 163.243 205.07 154.766 215.492 154.766H216.738V126.036H215.492C209.469 126.036 204.569 121.137 204.569 115.115C204.569 109.093 209.469 104.195 215.492 104.195ZM202.075 115.115C202.075 122.091 207.429 127.841 214.246 128.472V152.308C203.027 152.956 194.097 162.286 194.097 173.662C194.097 185.038 203.027 194.366 214.246 195.014V196.49C214.246 202.502 209.352 207.393 203.338 207.393H119.724C119.101 201.84 114.373 197.507 108.655 197.507C103.072 197.507 98.4005 201.694 97.6429 207.095C92.6332 206.055 88.9957 201.697 88.9957 196.49V126.568C94.7656 125.944 99.2715 121.046 99.2715 115.115C99.2715 109.183 94.7656 104.285 88.9957 103.661V93.0479C88.9957 87.0356 93.8866 82.1454 99.8995 82.1454H127.223C127.872 95.0395 138.567 105.329 151.621 105.329C164.676 105.329 175.37 95.0395 176.02 82.1454H203.338C209.352 82.1454 214.246 87.0356 214.246 93.0479V101.759C207.429 102.389 202.075 108.138 202.075 115.115Z" fill="black"/>
</svg>
