<svg width="27" height="27" viewBox="0 0 27 27" fill="none" xmlns="http://www.w3.org/2000/svg">
<path d="M13.5 0C6.0562 0 0 6.0562 0 13.5C0 20.9438 6.0562 27 13.5 27C20.9438 27 27 20.9438 27 13.5C27 6.0562 20.9438 0 13.5 0ZM13.5 26.0357C6.58752 26.0357 0.964286 20.412 0.964286 13.5C0.964286 6.588 6.58752 0.964286 13.5 0.964286C20.4125 0.964286 26.0357 6.588 26.0357 13.5C26.0357 20.412 20.4125 26.0357 13.5 26.0357Z" fill="black"/>
<path d="M7.23214 8.19643H19.7679C20.0345 8.19643 20.25 7.98043 20.25 7.71429C20.25 7.44815 20.0345 7.23215 19.7679 7.23215H7.23214C6.96552 7.23215 6.75 7.44815 6.75 7.71429C6.75 7.98043 6.96552 8.19643 7.23214 8.19643Z" fill="black"/>
<path d="M21.6964 14.9464H5.30357C5.03694 14.9464 4.82143 15.1624 4.82143 15.4286C4.82143 15.6947 5.03694 15.9107 5.30357 15.9107H21.6964C21.9631 15.9107 22.1786 15.6947 22.1786 15.4286C22.1786 15.1624 21.9631 14.9464 21.6964 14.9464Z" fill="black"/>
<path d="M21.6964 11.0893H5.30357C5.03694 11.0893 4.82143 11.3053 4.82143 11.5714C4.82143 11.8376 5.03694 12.0536 5.30357 12.0536H21.6964C21.9631 12.0536 22.1786 11.8376 22.1786 11.5714C22.1786 11.3053 21.9631 11.0893 21.6964 11.0893Z" fill="black"/>
<path d="M19.7679 18.8036H7.23214C6.96552 18.8036 6.75 19.0196 6.75 19.2857C6.75 19.5518 6.96552 19.7678 7.23214 19.7678H19.7679C20.0345 19.7678 20.25 19.5518 20.25 19.2857C20.25 19.0196 20.0345 18.8036 19.7679 18.8036Z" fill="black"/>
</svg>
