<svg width="80" height="80" viewBox="0 0 300 250" fill="none" xmlns="http://www.w3.org/2000/svg">
<path d="M112.974 7.0072C55.42 7.0072 8.59375 53.8368 8.59375 111.394C8.59375 168.953 55.42 215.781 112.974 215.781C170.538 215.781 217.367 168.953 217.367 111.394C217.367 53.8368 170.538 7.0072 112.974 7.0072ZM112.974 213.088C56.9037 213.088 11.2882 167.469 11.2882 111.395C11.2882 55.3218 56.9037 9.70161 112.974 9.70161C169.051 9.70161 214.671 55.3224 214.671 111.395C214.671 167.469 169.051 213.088 112.974 213.088Z" fill="black"/>
<path d="M203.165 74.7688H112.919C100.708 74.7688 90.7708 84.7035 90.7708 96.9141C90.7708 104.865 95.0877 112.25 102.038 116.185L107.278 119.17V188.352C107.278 194.44 112.229 199.393 118.316 199.393H197.863C203.948 199.393 208.899 194.44 208.899 188.352V119.134L214.104 116.147C221.023 112.21 225.319 104.842 225.319 96.9141C225.318 84.7035 215.38 74.7688 203.165 74.7688Z" fill="#FED30F"/>
<path d="M203.165 65.8612H112.92C95.7953 65.8612 81.8613 79.7925 81.8613 96.9141C81.8613 108.064 87.9089 118.42 97.6447 123.943L98.3682 124.355V188.352C98.3682 199.35 107.317 208.296 118.314 208.296H197.862C208.855 208.296 217.795 199.35 217.795 188.352V124.295L218.52 123.883C228.207 118.365 234.222 108.031 234.222 96.9141C234.223 79.7925 220.29 65.8612 203.165 65.8612ZM215.523 118.633L211.761 120.789V188.352C211.761 196.017 205.526 202.254 197.863 202.254H118.315C110.65 202.254 104.416 196.017 104.416 188.352V120.833L100.627 118.675C92.7825 114.233 87.9089 105.893 87.9089 96.9141C87.9089 83.1257 99.1291 71.9075 112.92 71.9075H203.165C216.958 71.9075 228.178 83.1257 228.178 96.9141C228.178 105.866 223.33 114.191 215.523 118.633Z" fill="#AE8F30"/>
<path d="M203.165 63H112.919C94.2161 63 79 78.2134 79 96.9141C79 108.81 85.3045 119.882 95.5069 126.009V188.352C95.5069 200.927 105.737 211.159 118.315 211.159H197.863C210.43 211.159 220.658 200.927 220.658 188.352V125.946C230.814 119.825 237.083 108.778 237.083 96.9141C237.083 78.2134 221.869 63 203.165 63ZM218.52 123.883L217.796 124.295V188.352C217.796 199.35 208.855 208.296 197.863 208.296H118.315C107.317 208.296 98.3688 199.35 98.3688 188.352V124.355L97.6453 123.943C87.9095 118.42 81.862 108.064 81.862 96.9141C81.862 79.7925 95.7959 65.8613 112.92 65.8613H203.165C220.29 65.8613 234.223 79.7925 234.223 96.9141C234.223 108.031 228.207 118.366 218.52 123.883Z" fill="#231F20"/>
<path d="M203.165 71.9075H112.92C99.1291 71.9075 87.9089 83.1256 87.9089 96.9141C87.9089 105.892 92.7825 114.233 100.627 118.675L104.416 120.833V188.352C104.416 196.017 110.65 202.254 118.315 202.254H197.863C205.526 202.254 211.761 196.017 211.761 188.352V120.79L215.523 118.634C223.33 114.192 228.178 105.867 228.178 96.9147C228.178 83.1256 216.959 71.9075 203.165 71.9075ZM214.104 116.147L208.899 119.133V188.352C208.899 194.44 203.948 199.393 197.863 199.393H118.315C112.229 199.393 107.278 194.44 107.278 188.352V119.17L102.038 116.185C95.0872 112.25 90.7702 104.864 90.7702 96.9141C90.7702 84.7034 100.708 74.7687 112.919 74.7687H203.165C215.38 74.7687 225.317 84.7034 225.317 96.9141C225.318 104.842 221.023 112.21 214.104 116.147Z" fill="#231F20"/>
<path d="M188.744 13.3959C188.744 7.38371 183.85 2.49344 177.836 2.49344H150.518C149.868 15.3875 139.173 25.6773 126.119 25.6773C113.065 25.6773 102.37 15.3875 101.721 2.49344H74.3975C68.3839 2.49344 63.4937 7.38371 63.4937 13.3959V24.0094C69.2636 24.6328 73.7694 29.531 73.7694 35.4632C73.7694 41.3939 69.2636 46.2929 63.4937 46.9156V116.838C63.4937 122.045 67.1311 126.403 72.1409 127.443C72.8984 122.042 77.5698 117.855 83.1528 117.855C88.8714 117.855 93.5988 122.188 94.2221 127.741H177.836C183.85 127.741 188.744 122.85 188.744 116.838V115.363C177.525 114.715 168.595 105.386 168.595 94.0101C168.595 82.6344 177.525 73.3044 188.744 72.6564V48.8198C181.926 48.189 176.573 42.4385 176.573 35.4632C176.573 28.4865 181.926 22.7373 188.744 22.1065V13.3959ZM111.284 103.244C95.0844 103.244 81.906 90.0656 81.906 73.8677C81.906 57.6685 95.0844 44.4901 111.284 44.4901C127.481 44.4901 140.659 57.6685 140.659 73.8677C140.659 90.0663 127.48 103.244 111.284 103.244Z" fill="#F6F193"/>
<path d="M111.284 44.4901C95.0844 44.4901 81.906 57.6685 81.906 73.8677C81.906 90.0662 95.0844 103.244 111.284 103.244C127.481 103.244 140.659 90.0656 140.659 73.8677C140.659 57.6685 127.48 44.4901 111.284 44.4901ZM111.284 100.751C96.46 100.751 84.3988 88.692 84.3988 73.8677C84.3988 59.0434 96.46 46.983 111.284 46.983C126.107 46.983 138.166 59.0434 138.166 73.8677C138.166 88.692 126.107 100.751 111.284 100.751Z" fill="black"/>
<path d="M189.99 24.5427H191.236V13.3953C191.236 6.00954 185.225 0 177.836 0H148.058V1.24609C148.058 13.3426 138.216 23.1838 126.119 23.1838C114.022 23.1838 104.181 13.3426 104.181 1.24609V0H74.3973C67.0109 0 61 6.00954 61 13.3953V26.4356H62.2468C67.2245 26.4356 71.2764 30.4855 71.2764 35.4632C71.2764 40.4403 67.2251 44.4902 62.2468 44.4902H61V116.838C61 123.766 66.2293 129.473 73.1659 130.115L74.5088 130.239L74.5261 128.888C74.5822 124.179 78.45 120.349 83.152 120.349C87.9188 120.349 91.7972 124.225 91.7972 128.988V130.234H177.836C185.225 130.234 191.236 124.227 191.236 116.839V112.905H189.99C179.568 112.905 171.088 104.429 171.088 94.0102C171.088 83.5916 179.568 75.1139 189.99 75.1139H191.236V46.3837H189.99C183.967 46.3837 179.066 41.4848 179.066 35.4632C179.066 29.441 183.967 24.5427 189.99 24.5427ZM176.573 35.4632C176.573 42.4392 181.926 48.1891 188.743 48.8198V72.6564C177.525 73.3039 168.595 82.6345 168.595 94.0102C168.595 105.386 177.525 114.715 188.743 115.363V116.838C188.743 122.85 183.85 127.741 177.836 127.741H94.222C93.5986 122.188 88.8706 117.855 83.1527 117.855C77.5703 117.855 72.8983 122.042 72.1407 127.443C67.131 126.403 63.4935 122.045 63.4935 116.838V46.9157C69.2634 46.2923 73.7693 41.394 73.7693 35.4632C73.7693 29.5311 69.2634 24.6328 63.4935 24.0095V13.396C63.4935 7.38379 68.3844 2.49351 74.3973 2.49351H101.721C102.37 15.3876 113.065 25.6774 126.119 25.6774C139.173 25.6774 149.868 15.3876 150.518 2.49351H177.836C183.85 2.49351 188.743 7.38379 188.743 13.396V22.1073C181.926 22.7374 176.573 28.4866 176.573 35.4632Z" fill="black"/>
<path d="M98.1387 221.398L97.0068 221.496L85.4762 186.165L75.2312 189.515L86.7464 224.828L85.8133 225.415C85.8073 225.415 81.9796 227.775 79.9693 231.476C77.6753 235.685 78.8306 239.88 83.3998 243.931L83.7816 244.279L84.0025 244.211C85.9074 244.855 87.6174 244.942 89.1745 244.5H89.1805C91.5605 243.767 93.5275 241.934 95.1259 239.002L96.3233 236.67L97.5761 237.349C100.888 239.142 103.827 239.664 106.303 238.906C108.886 238.126 110.291 236.127 110.896 235.018C111.919 230.667 111.369 227.301 109.415 225.06C105.965 221.101 98.9276 221.351 98.1387 221.398Z" fill="white"/>
<path d="M111.527 223.225C108.174 219.387 102.634 218.679 99.6297 218.587L98.993 218.577L88.0751 185.01L88.0144 182.102C87.8195 174.445 87.6166 166.511 89.0009 159.227C90.0294 153.456 92.0477 147.57 94.0086 141.814C95.3735 137.817 96.5916 134.229 97.536 130.749C99.4041 124.95 100.238 119.982 100.18 115.114C100.133 111.962 99.7565 108.879 99.3721 105.682C99.1144 103.651 98.8641 101.63 98.7153 99.5873C98.5338 96.8429 98.4804 94.003 98.4283 91.1817C98.2942 83.6598 98.1387 75.8649 95.511 68.696C90.9298 56.1303 84.9175 46.8183 77.6459 41.0117C69.1348 34.4555 60.274 30.9882 49.75 30.1219C46.2827 29.7215 37.9658 30.3328 33.7276 31.5849C29.4948 32.8764 22.396 36.7849 19.739 38.972C13.7668 43.564 9.22029 48.8026 5.85511 54.9924C4.47419 57.5366 3.27149 60.2804 2.18758 63.3286C-0.753783 72.144 -0.727782 83.2173 2.2583 96.2462C3.94223 103.693 8.03624 110.285 12.0141 116.7C13.6687 119.361 15.045 121.587 16.3478 123.921C17.2415 125.576 18.0811 127.272 18.9047 128.956L19.0916 129.343C20.4278 132.11 21.8167 134.975 23.5694 137.749C26.1637 141.888 29.5442 145.586 34.2302 149.391C36.9667 151.855 40.0262 154.273 42.9862 156.603L43.4254 156.949C48.1034 160.639 52.9469 164.456 56.9248 168.727C62 174.049 66.12 180.772 70.1059 187.276L71.4741 189.496L72.3158 189.622L83.4338 223.652L82.9286 224.049C81.5837 225.072 79.1009 227.235 77.5218 230.133C75.4614 233.936 74.5463 239.824 81.802 246.204C81.9501 246.296 85.6277 248.371 89.8552 247.207L90.1055 247.129C92.87 246.29 95.2306 244.269 97.1168 241.135L97.522 240.454L98.2428 240.754C101.465 242.103 104.444 242.377 107.112 241.56C109.743 240.754 111.96 238.905 113.324 236.42L113.703 235.572C114.834 230.346 114.108 226.195 111.527 223.225ZM73.7754 187.022L73.1547 186.905L72.494 185.817C68.4213 179.179 64.2112 172.313 58.9472 166.816C54.8118 162.37 49.8468 158.452 44.9638 154.61L44.6081 154.331C41.596 151.952 38.7334 149.704 36.039 147.281C31.5038 143.569 28.3802 140.178 25.9367 136.259C24.2602 133.618 22.9714 130.955 21.5584 128.047C20.6687 126.21 19.7724 124.372 18.7779 122.562C17.4731 120.194 15.9807 117.801 14.539 115.471L14.3702 115.197C10.5318 109.009 6.56189 102.616 4.98342 95.6168C2.1108 83.1018 2.05474 72.5458 4.83058 64.2316C5.83506 61.367 6.97504 58.7814 8.31324 56.3306C11.5262 50.4091 15.7197 45.5936 21.4816 41.1565C23.8837 39.1816 30.7843 35.396 34.5439 34.2513L34.67 34.2126C38.403 33.114 46.3201 32.5367 49.4797 32.9064C59.5926 33.7314 67.7459 36.903 75.9232 43.2055C82.7851 48.6951 88.4896 57.5813 92.886 69.6478C95.3608 76.3895 95.5036 83.9241 95.6318 91.2332C95.6818 93.8902 95.7399 96.9056 95.9321 99.7743C96.087 101.869 96.3393 103.949 96.6156 106.132C96.984 109.206 97.3364 112.104 97.3838 115.149C97.4412 119.756 96.6656 124.324 94.8522 129.957C93.9319 133.375 92.7638 136.795 91.5351 140.425L91.3749 140.911C89.3833 146.718 87.3236 152.721 86.2631 158.732C84.8127 166.29 85.021 174.37 85.2225 182.168L85.2466 183.294L74.0525 186.959L73.7754 187.022ZM110.896 235.018C110.291 236.127 108.886 238.126 106.303 238.906C103.826 239.664 100.888 239.142 97.576 237.349L96.3232 236.669L95.1259 239.002C93.5267 241.935 91.5604 243.768 89.1804 244.5H89.1744C87.6173 244.942 85.9066 244.855 84.0025 244.211L83.7816 244.279L83.3998 243.931C78.8312 239.88 77.6753 235.685 79.9692 231.476C81.9795 227.775 85.8072 225.415 85.8132 225.415L86.7463 224.828L75.2311 189.515L85.4762 186.165L97.0067 221.495L98.1386 221.398C98.9275 221.352 105.966 221.102 109.415 225.06C111.369 227.301 111.919 230.667 110.896 235.018Z" fill="#231F20"/>
<path d="M85.2247 182.169C85.0225 174.37 84.8149 166.291 86.2652 158.732C87.3258 152.722 89.3855 146.719 91.3771 140.912L91.5372 140.425C92.766 136.796 93.934 133.376 94.8544 129.958C96.6678 124.326 97.4433 119.758 97.3859 115.15C97.3385 112.104 96.9855 109.207 96.6177 106.133C96.3414 103.95 96.0891 101.869 95.9343 99.775C95.7421 96.9064 95.684 93.8916 95.6339 91.2339C95.5058 83.9249 95.3629 76.3903 92.8881 69.6485C88.4918 57.5821 82.7872 48.6953 75.9254 43.2063C67.7487 36.9044 59.5947 33.7328 49.4818 32.9072C46.3222 32.5374 38.4051 33.1154 34.6722 34.2134L34.5461 34.2521C30.7864 35.3967 23.8852 39.1824 21.4838 41.1573C15.7219 45.5944 11.5284 50.4099 8.3154 56.3313C6.9772 58.7821 5.83726 61.3678 4.83278 64.2324C2.05694 72.5465 2.1123 83.1026 4.98558 95.6176C6.56405 102.617 10.5339 109.009 14.3723 115.197L14.5412 115.472C15.9828 117.802 17.4752 120.195 18.78 122.562C19.7745 124.372 20.6709 126.211 21.5606 128.047C22.9735 130.955 24.2623 133.619 25.9389 136.259C28.3824 140.179 31.5059 143.57 36.0411 147.282C38.7355 149.705 41.5981 151.952 44.6102 154.331L44.966 154.61C49.8489 158.453 54.8133 162.371 58.9493 166.816C64.2133 172.313 68.4235 179.179 72.4961 185.818L73.1569 186.906L73.7776 187.023L74.0566 186.961L85.2507 183.297L85.2247 182.169Z" fill="#F26A59"/>
</svg>
