<svg width="33" height="33" viewBox="0 0 27 27" fill="none" xmlns="http://www.w3.org/2000/svg">
<path d="M13.5 0C6.0561 0 0 6.0561 0 13.5C0 20.9439 6.0561 27 13.5 27C20.9439 27 27 20.9439 27 13.5C27 6.0561 20.9439 0 13.5 0ZM13.5 26.1C6.55245 26.1 0.9 20.4475 0.9 13.5C0.9 6.55245 6.55245 0.9 13.5 0.9C20.4475 0.9 26.1 6.55245 26.1 13.5C26.1 20.4475 20.4475 26.1 13.5 26.1Z" fill="black"/>
<path d="M17.55 9.00001C19.039 9.00001 20.25 7.78906 20.25 6.30001C20.25 4.81096 19.039 3.60001 17.55 3.60001C16.141 3.60001 14.9827 4.68496 14.8621 6.06331L8.53245 10.7046C8.1387 10.4801 7.68465 10.35 7.2 10.35C5.71095 10.35 4.5 11.561 4.5 13.05C4.5 14.5391 5.71095 15.75 7.2 15.75C7.68465 15.75 8.1387 15.62 8.53245 15.3954L14.8617 20.0367C14.9827 21.4151 16.141 22.5 17.55 22.5C19.039 22.5 20.25 21.2891 20.25 19.8C20.25 18.311 19.039 17.1 17.55 17.1C16.3395 17.1 15.3126 17.901 14.971 19.0004L9.24885 14.8041C9.6534 14.3316 9.9 13.7196 9.9 13.05C9.9 12.3804 9.6534 11.7684 9.2484 11.2959L14.9706 7.09966C15.3126 8.19901 16.3395 9.00001 17.55 9.00001ZM17.55 4.50001C18.5427 4.50001 19.35 5.30731 19.35 6.30001C19.35 7.29271 18.5427 8.10001 17.55 8.10001C16.5573 8.10001 15.75 7.29271 15.75 6.30001C15.75 5.30731 16.5573 4.50001 17.55 4.50001ZM5.4 13.05C5.4 12.0573 6.2073 11.25 7.2 11.25C8.1927 11.25 9 12.0573 9 13.05C9 14.0427 8.1927 14.85 7.2 14.85C6.2073 14.85 5.4 14.0427 5.4 13.05ZM17.55 18C18.5427 18 19.35 18.8073 19.35 19.8C19.35 20.7927 18.5427 21.6 17.55 21.6C16.5573 21.6 15.75 20.7927 15.75 19.8C15.75 18.8073 16.5573 18 17.55 18Z" fill="black"/>
</svg>
