<svg width="221" height="209" viewBox="0 0 221 209" fill="none" xmlns="http://www.w3.org/2000/svg">
<path d="M104.591 2.70093C48.5131 2.70093 2.89429 48.3218 2.89429 104.394C2.89429 160.469 48.5138 206.088 104.591 206.088C160.667 206.088 206.288 160.468 206.288 104.394C206.288 48.3218 160.667 2.70093 104.591 2.70093Z" fill="#86C54C"/>
<path d="M104.59 0.00720215C47.0273 0.00720215 0.198486 46.8368 0.198486 104.394C0.198486 161.953 47.0273 208.781 104.59 208.781C162.153 208.781 208.982 161.953 208.982 104.394C208.982 46.8368 162.153 0.00720215 104.59 0.00720215ZM104.59 206.088C48.513 206.088 2.89424 160.469 2.89424 104.395C2.89424 48.3218 48.5137 2.70161 104.59 2.70161C160.667 2.70161 206.288 48.3224 206.288 104.395C206.288 160.469 160.667 206.088 104.59 206.088Z" fill="black"/>
<path d="M93.4979 153.551C99.4634 179.254 126.216 186.758 127.352 187.064L128.326 187.359C133.703 189.272 139.276 190.247 144.859 190.247C156.433 190.247 166.399 186.002 172.721 182.443L173.726 181.878L93.2764 152.6L93.4979 153.551Z" fill="#F26A59"/>
<path d="M128.17 103.857C118.749 108.973 111.004 114.752 105.154 121.03L104.609 121.614L198.426 155.754L198.64 155.347C202.89 147.294 205.704 138.265 207.006 128.51L207.063 128.088L133.111 101.173L128.17 103.857Z" fill="#F26A59"/>
<path d="M102.937 123.529C91.0952 137.723 92.6897 149.613 92.7057 149.732L92.7518 150.043L93.0895 150.382L175.938 180.535L176.161 180.395C180.491 177.616 182.97 175.357 182.99 175.337C188.579 170.332 193.33 164.523 197.097 158.086L197.417 157.539L103.175 123.245L102.937 123.529Z" fill="#F26A59"/>
<path d="M146.42 70.1179C146.41 69.9431 146.387 69.7702 146.364 69.5973C146.334 69.3971 146.307 69.1969 146.307 68.9893C146.307 60.2093 153.451 53.0651 162.235 53.0651C171.018 53.0651 178.161 60.2093 178.161 68.9893C178.161 73.1087 176.568 77.0312 173.672 80.0386L173.105 80.6226L205.256 92.3233L205.021 91.3636C204.892 90.8343 204.796 90.5013 204.755 90.3651C192.223 48.1575 166.956 46.9374 164.116 46.9374L163.723 46.9554H163.23C153.214 46.9554 145.738 49.525 140.995 54.5895C138.21 57.5776 136.224 61.5121 135.089 66.2869L134.98 66.7461L146.474 70.9302L146.42 70.1179Z" fill="#F26A59"/>
<path d="M205.774 94.6587L171.262 82.0957L171.04 82.2452C168.43 83.9985 165.383 84.9249 162.236 84.9249C155.297 84.9249 149.048 80.2302 147.046 73.5098L146.971 73.2562L134.593 68.7537L134.499 69.3964C133.984 72.8691 134.083 75.5929 134.118 75.8585L134.139 99.3974L207.308 126.029L207.376 125.35C208.691 112.03 206.974 100.585 205.833 94.9477L205.774 94.6587Z" fill="#F26A59"/>
<path d="M216.179 95.4535C215.354 90.4985 214.525 87.5692 214.517 87.5472C200.169 39.2232 169.913 36.7751 163.993 36.7751C163.754 36.7751 163.572 36.7851 163.422 36.7905C150.193 36.7971 140.193 40.4887 133.47 47.7677C129.794 51.7375 127.122 56.7913 125.523 62.7842C125.246 63.834 125.003 64.8599 124.816 65.8464C123.747 71.386 123.931 75.789 123.977 76.616V93.8283C123.977 94.2141 123.731 94.5198 123.524 94.7134L123.313 94.933C122.308 95.4823 121.347 96.0349 120.383 96.5915C109.649 102.802 101.127 109.747 94.8954 117.328C94.1866 118.186 93.5178 119.043 92.8844 119.891C85.0061 130.486 82.9297 140.02 82.574 146.152C82.4979 147.334 82.4872 148.451 82.5346 149.474C82.588 150.792 82.7148 151.592 82.7408 151.757C87.9555 186.169 123.416 196.522 124.922 196.945C131.428 199.241 138.139 200.408 144.859 200.408C163.002 200.408 177.682 191.882 184.818 186.8C186.001 185.95 187.004 185.198 187.779 184.573C189.136 183.499 189.884 182.81 189.932 182.767C196.723 176.674 202.386 169.54 206.742 161.581C207.254 160.667 207.732 159.737 208.197 158.814C212.27 150.663 215.08 141.64 216.553 131.993C216.722 130.947 216.871 129.902 216.999 128.86C218.472 116.777 217.652 105.916 216.704 98.9349C216.533 97.6941 216.351 96.5181 216.179 95.4535ZM209.748 126.487C209.634 127.511 209.508 128.554 209.355 129.598C208.006 139.192 205.219 148.101 201.071 156.081C200.601 156.985 200.105 157.89 199.582 158.792C195.643 165.671 190.628 171.865 184.669 177.206C184.346 177.5 182.63 179.027 179.752 181.033C178.812 181.684 177.732 182.398 176.559 183.126C169.469 187.519 158.211 192.755 144.86 192.755C139.006 192.755 133.155 191.732 127.471 189.716L126.737 189.494C125.46 189.153 95.7765 180.841 90.5992 151.906C90.5618 151.705 90.5171 151.508 90.4677 151.312C90.4183 151.109 90.3689 150.905 90.3389 150.689L90.2534 150.21C90.2294 150.097 90.1553 149.515 90.142 148.542C90.0699 144.729 90.9069 134.598 100.23 122.912C100.882 122.093 101.585 121.261 102.324 120.427C108.465 113.518 116.754 107.204 126.975 101.657L131.633 99.1338V76.6794L131.616 75.9819C131.611 75.9098 131.382 72.7069 132.109 68.3105C132.267 67.3481 132.478 66.3449 132.734 65.3004C133.996 60.28 136.16 56.0992 139.173 52.8782C144.395 47.2885 152.497 44.4525 163.252 44.4525C163.252 44.4525 163.952 44.4299 163.998 44.4299C167.037 44.4299 194.112 45.698 207.167 89.6676C207.241 89.9466 207.572 91.1533 207.991 93.0521C208.202 94.0339 208.436 95.2079 208.673 96.5568C209.894 103.422 211.073 114.183 209.748 126.487Z" fill="#D75E50"/>
<path d="M162.235 55.5699C154.831 55.5699 148.806 61.5908 148.806 68.9886C148.806 69.8295 148.893 70.6805 149.073 71.5969C149.338 72.9204 149.836 74.2199 150.602 75.5721C153.004 79.7943 157.46 82.4179 162.235 82.4179C163.785 82.4179 165.372 82.1143 166.948 81.5169C168.233 81.0303 169.455 80.3269 170.575 79.4245C173.804 76.8456 175.656 73.0419 175.656 68.9879C175.656 61.5908 169.636 55.5699 162.235 55.5699Z" fill="white"/>
<path d="M219.408 100.433C219.26 99.2373 219.116 98.0773 218.956 97.0134C218.142 91.5151 217.203 87.8703 216.928 86.8498C202.061 36.8032 170.225 34.2683 163.993 34.2683C163.445 34.2683 163.152 34.2897 163.079 34.293C149.417 34.293 138.825 38.2629 131.601 46.0951C127.687 50.3387 124.842 55.6314 123.142 61.8305C122.861 62.8476 122.626 63.8381 122.431 64.8025C121.127 71.1551 121.434 76.1649 121.475 76.7542L121.47 93.0836L119.865 94.0046C118.687 94.674 117.53 95.3361 116.416 96.0163C106.275 102.184 98.0691 109.129 92.0329 116.652C91.3521 117.506 90.7014 118.349 90.092 119.195C82.5888 129.549 80.485 138.897 80.0385 144.918C79.9504 146.111 79.9277 147.178 79.9377 148.109C79.9671 150.276 80.1893 151.707 80.2847 152.236C85.7777 188.559 122.615 198.903 124.218 199.338C130.892 201.712 137.837 202.916 144.86 202.916C165.94 202.916 182.222 192.084 188.246 187.426C189.514 186.444 190.445 185.669 191.176 185.021C191.372 184.846 191.52 184.718 191.609 184.623C198.764 178.219 204.692 170.713 209.227 162.315C209.717 161.404 210.175 160.487 210.627 159.573C214.624 151.458 217.418 142.541 218.929 133.075C219.085 132.033 219.234 131.002 219.371 129.976C220.907 118.039 220.239 107.321 219.408 100.433ZM216.998 128.861C216.87 129.903 216.722 130.948 216.553 131.994C215.08 141.64 212.27 150.663 208.196 158.815C207.732 159.738 207.253 160.668 206.741 161.582C202.386 169.541 196.722 176.674 189.932 182.767C189.884 182.811 189.136 183.5 187.778 184.574C187.004 185.199 186.001 185.951 184.818 186.801C177.681 191.882 163.001 200.409 144.858 200.409C138.138 200.409 131.427 199.242 124.922 196.946C123.415 196.523 87.9549 186.169 82.7403 151.757C82.7142 151.593 82.5874 150.793 82.534 149.475C82.4866 148.452 82.4966 147.334 82.5734 146.152C82.9291 140.021 85.0062 130.486 92.8839 119.892C93.5166 119.044 94.186 118.186 94.8948 117.329C101.127 109.747 109.648 102.802 120.382 96.5922C121.346 96.0356 122.307 95.483 123.312 94.9337L123.524 94.7141C123.73 94.5206 123.977 94.2148 123.977 93.8291V76.6167C123.93 75.7904 123.747 71.3867 124.816 65.8471C125.002 64.8606 125.246 63.8348 125.523 62.7849C127.122 56.792 129.793 51.7383 133.47 47.7684C140.193 40.4894 150.192 36.7972 163.422 36.7912C163.572 36.7852 163.753 36.7758 163.993 36.7758C169.912 36.7758 200.169 39.224 214.516 87.5479C214.525 87.5699 215.353 90.4993 216.178 95.4543C216.35 96.5188 216.531 97.6948 216.702 98.9363C217.653 105.917 218.471 116.777 216.998 128.861Z" fill="#231F20"/>
<path d="M207.992 93.0521C207.572 91.1526 207.241 89.9466 207.167 89.6676C194.112 45.698 167.037 44.4299 163.999 44.4299C163.953 44.4299 163.252 44.4525 163.252 44.4525C152.498 44.4525 144.395 47.2885 139.173 52.8782C136.159 56.0992 133.995 60.28 132.734 65.3004C132.479 66.3443 132.268 67.3474 132.11 68.3105C131.382 72.7069 131.611 75.9099 131.616 75.9819L131.633 76.6794V99.1338L126.975 101.657C116.755 107.205 108.466 113.518 102.324 120.427C101.586 121.261 100.882 122.093 100.23 122.912C90.907 134.599 90.0694 144.729 90.1422 148.542C90.1555 149.515 90.2296 150.097 90.2536 150.21L90.3391 150.689C90.3691 150.904 90.4185 151.109 90.4679 151.312C90.5173 151.508 90.5627 151.705 90.5994 151.906C95.7766 180.842 125.46 189.153 126.737 189.494L127.472 189.716C133.155 191.732 139.005 192.755 144.86 192.755C158.211 192.755 169.469 187.519 176.559 183.126C177.732 182.398 178.812 181.684 179.753 181.033C182.631 179.026 184.347 177.5 184.67 177.206C190.628 171.865 195.643 165.671 199.583 158.792C200.105 157.89 200.601 156.985 201.071 156.081C205.219 148.101 208.006 139.192 209.355 129.598C209.508 128.554 209.634 127.511 209.748 126.487C211.073 114.183 209.895 103.422 208.673 96.5568C208.436 95.2086 208.203 94.0339 207.992 93.0521ZM135.09 66.2862C136.224 61.5114 138.211 57.5762 140.996 54.5888C145.739 49.5244 153.216 46.9548 163.23 46.9548H163.724L164.117 46.9367C166.957 46.9367 192.223 48.1568 204.756 90.3644C204.797 90.5005 204.893 90.8336 205.022 91.3629L205.256 92.3226L173.106 80.6219L173.672 80.0379C176.568 77.0305 178.162 73.108 178.162 68.9886C178.162 60.2086 171.019 53.0644 162.236 53.0644C153.452 53.0644 146.308 60.2086 146.308 68.9886C146.308 69.1969 146.335 69.3964 146.364 69.5967C146.388 69.7702 146.411 69.943 146.421 70.1172L146.476 70.9282L134.981 66.744L135.09 66.2862ZM170.574 79.4252C169.455 80.3276 168.232 81.031 166.948 81.5176C165.372 82.115 163.786 82.4187 162.235 82.4187C157.46 82.4187 153.003 79.795 150.602 75.5728C149.836 74.2206 149.337 72.9211 149.073 71.5976C148.892 70.6812 148.805 69.8302 148.805 68.9893C148.805 61.5908 154.83 55.5706 162.235 55.5706C169.636 55.5706 175.655 61.5915 175.655 68.9893C175.657 73.0426 173.803 76.8463 170.574 79.4252ZM172.721 182.443C166.399 186.002 156.433 190.247 144.859 190.247C139.276 190.247 133.702 189.272 128.326 187.359L127.352 187.064C126.216 186.758 99.4641 179.254 93.498 153.551L93.2764 152.6L173.726 181.878L172.721 182.443ZM197.097 158.087C193.33 164.523 188.579 170.332 182.99 175.337C182.97 175.357 180.491 177.616 176.161 180.395L175.938 180.535L93.0895 150.382L92.7518 150.043L92.7058 149.732C92.6904 149.613 91.0953 137.723 102.937 123.529L103.175 123.244L197.418 157.539L197.097 158.087ZM207.006 128.51C205.704 138.265 202.89 147.294 198.64 155.347L198.426 155.754L104.609 121.614L105.154 121.03C111.005 114.752 118.75 108.973 128.17 103.857L133.111 101.173L207.063 128.088L207.006 128.51ZM207.376 125.35L207.307 126.028L134.139 99.3967L134.117 75.8578C134.082 75.5928 133.984 72.8684 134.498 69.3957L134.593 68.753L146.97 73.2555L147.046 73.5091C149.048 80.2288 155.295 84.9242 162.235 84.9242C165.384 84.9242 168.429 83.9978 171.039 82.2444L171.262 82.0949L205.774 94.658L205.833 94.947C206.974 100.584 208.69 112.029 207.376 125.35Z" fill="#231F20"/>
<path d="M98.4069 81.1914C82.3746 54.6824 68.0802 47.4528 67.9354 47.3834C61.6321 43.2714 56.3621 42.4258 53.0263 42.4258C50.761 42.4258 49.4175 42.8215 49.4028 42.8262C49.1198 42.8829 40.9478 44.1778 34.413 54.6958C34.2782 54.8747 33.9892 55.2351 33.5186 55.9566C31.2834 59.3384 23.7929 72.37 20.977 98.305C20.9329 98.6347 17.0545 128.138 28.8987 154.732C29.0308 155.087 39.111 181.741 67.4808 181.744C67.4835 181.744 67.4835 181.744 67.4862 181.744C71.3726 181.744 75.486 181.245 79.7155 180.259C81.0851 179.973 82.3612 179.655 83.5986 179.308C117.542 169.821 115.151 137.138 115.031 135.753C114.543 106.518 98.5684 81.4424 98.4069 81.1914ZM77.0511 168.148C74.372 168.741 71.6543 169.042 68.9672 169.042C68.5454 169.042 68.1242 169.034 67.7037 169.019C50.6729 168.457 36.1984 156.425 32.5042 139.76C30.3724 130.122 32.085 120.212 37.3283 111.853C42.6871 103.303 51.058 97.394 60.8973 95.2135C63.5703 94.6221 66.2988 94.3211 69.0119 94.3211C86.3645 94.3211 101.687 106.637 105.444 123.607C109.895 143.712 97.1594 163.694 77.0511 168.148Z" fill="white"/>
<path d="M69.0111 96.9681C66.4922 96.9681 63.954 97.2458 61.4705 97.7964C52.3267 99.8234 44.5498 105.314 39.5707 113.257C34.6992 121.025 33.1054 130.234 35.087 139.187C38.5182 154.673 51.9669 165.853 67.7937 166.376C70.687 166.466 73.5983 166.201 76.477 165.565C95.161 161.427 106.998 142.861 102.858 124.178C99.3691 108.412 85.1315 96.9681 69.0111 96.9681Z" fill="#FED30F"/>
<path d="M117.673 135.616C117.177 105.728 100.795 80.012 100.651 79.7904C84.1787 52.554 69.7041 45.3004 69.2409 45.0881C57.7578 37.5742 48.7021 40.2505 48.8316 40.2505C48.355 40.316 39.3594 41.7222 32.274 53.1486C32.274 53.1486 31.9069 53.5838 31.3075 54.5049C28.3441 58.9914 21.1466 72.2138 18.3527 97.9793C18.3107 98.2809 14.3208 128.506 26.4473 155.722C26.5501 156.01 37.229 184.385 67.4809 184.389C67.4836 184.389 67.4836 184.389 67.4863 184.389C71.5736 184.389 75.8925 183.865 80.2842 182.842C81.6858 182.552 83.0174 182.217 84.3122 181.855C120.398 171.77 117.698 135.885 117.673 135.616ZM83.5994 179.308C82.3619 179.655 81.0852 179.973 79.7163 180.259C75.4868 181.244 71.3734 181.744 67.4869 181.744C67.4843 181.744 67.4842 181.744 67.4816 181.744C39.1118 181.741 29.0323 155.087 28.8995 154.732C17.0553 128.138 20.933 98.6347 20.9777 98.305C23.7936 72.37 31.2842 59.3384 33.5194 55.9565C33.99 55.235 34.2789 54.8746 34.4137 54.6957C40.9486 44.1777 49.1206 42.8829 49.4036 42.8262C49.4176 42.8215 50.7618 42.4257 53.027 42.4257C56.3629 42.4257 61.6329 43.2713 67.9361 47.3834C68.0816 47.4528 82.3753 54.6831 98.4076 81.1914C98.5685 81.4423 114.543 106.518 115.032 135.752C115.151 137.138 117.543 169.821 83.5994 179.308Z" fill="#231F20"/>
<path d="M69.0111 94.3211C66.298 94.3211 63.5696 94.6222 60.8965 95.2135C51.0579 97.394 42.687 103.303 37.3276 111.853C32.0849 120.212 30.3716 130.122 32.5034 139.76C36.1976 156.426 50.6728 168.457 67.703 169.019C68.1234 169.034 68.5446 169.042 68.9664 169.042C71.6534 169.042 74.3719 168.741 77.0503 168.148C97.1587 163.695 109.895 143.712 105.443 123.607C101.687 106.637 86.3636 94.3211 69.0111 94.3211ZM76.4777 165.565C73.599 166.201 70.6877 166.466 67.7944 166.376C51.9676 165.853 38.5189 154.673 35.0877 139.187C33.1061 130.234 34.6999 121.025 39.5715 113.257C44.5505 105.314 52.3267 99.8235 61.4712 97.7965C63.9547 97.2458 66.4923 96.9682 69.0118 96.9682C85.1316 96.9682 99.3692 108.412 102.86 124.179C106.999 142.861 95.1617 161.427 76.4777 165.565Z" fill="#231F20"/>
</svg>
