<svg width="209" height="285" viewBox="0 0 209 285" fill="none" xmlns="http://www.w3.org/2000/svg">
<path d="M104.591 273.759C160.667 273.759 206.288 228.143 206.288 172.072C206.288 115.995 160.666 70.3748 104.591 70.3748C48.5131 70.3748 2.89429 115.996 2.89429 172.072C2.89429 228.143 48.5138 273.759 104.591 273.759Z" fill="#85D3E4"/>
<path d="M104.59 276.454C162.153 276.454 208.982 229.628 208.982 172.071C208.982 114.51 162.153 67.6803 104.59 67.6803C47.0273 67.6803 0.198486 114.51 0.198486 172.071C0.198486 229.628 47.0273 276.454 104.59 276.454ZM104.59 70.3747C160.667 70.3747 206.288 115.996 206.288 172.072C206.288 228.143 160.666 273.759 104.59 273.759C48.513 273.759 2.89424 228.143 2.89424 172.072C2.89424 115.995 48.5137 70.3747 104.59 70.3747Z" fill="black"/>
<path d="M84.2619 27.3028C84.0824 22.765 84.0636 19.3618 84.0736 17.5564H57.2136C57.2229 19.3618 57.2049 22.765 57.0254 27.3028H84.2619Z" fill="#619741"/>
<path d="M55.6687 45.7406H85.6196C84.9916 39.9146 84.6144 34.6052 84.3902 30.1388H56.8974C56.6739 34.6052 56.2968 39.9153 55.6687 45.7406Z" fill="#619741"/>
<path d="M94.4224 14.7205C93.7129 8.32718 88.2767 3.34015 81.6952 3.34015H59.5879C53.013 3.34015 47.5828 8.32785 46.8767 14.7205H54.3226H86.9646H94.4224Z" fill="white"/>
<path d="M27.7615 235.095V266.354C27.8175 266.537 29.703 276.563 39.7725 276.563H101.512C111.587 276.563 113.476 266.537 113.554 266.111L113.531 235.095H27.7615Z" fill="#619741"/>
<path d="M96.7702 94.4177C90.7987 79.4879 87.6224 62.7414 85.9392 48.5759H55.3475C53.6649 62.7414 50.4893 79.4873 44.5158 94.4177L44.2895 94.8008C44.0859 95.041 24.1919 119.119 27.7393 138.804L27.758 145.642H113.53V139.056C117.098 119.118 97.1993 95.041 96.9978 94.8008L96.7702 94.4177Z" fill="#619741"/>
<path d="M27.7615 169.058V232.26H113.531V148.478H27.7615V166.223H67.2113V169.059H27.7615V169.058ZM101.512 197.106V199.942H40.6302V197.106H101.512Z" fill="white"/>
<path d="M116.346 139.307C119.998 119.006 101.338 95.6124 99.3213 93.1582C93.5494 78.6503 90.4504 62.3977 88.7912 48.5759H93.7969C94.5805 48.5759 95.2145 47.9419 95.2145 47.1583C95.2145 46.3747 94.5805 45.7407 93.7969 45.7407H88.4675C87.8334 39.9173 87.4524 34.6046 87.2275 30.1388H101.512C102.296 30.1388 102.93 29.5054 102.93 28.7212C102.93 27.9383 102.296 27.3029 101.512 27.3029H87.0979C86.9164 22.7357 86.8997 19.3311 86.9097 17.5564H97.3363V16.1382C97.3363 7.51762 90.3183 0.504272 81.6944 0.504272H59.5872C50.9713 0.504272 43.9626 7.51762 43.9626 16.1382V17.5564H54.3779C54.3879 19.3311 54.3712 22.7357 54.189 27.3029H48.349C47.5647 27.3029 46.9307 27.9377 46.9307 28.7212C46.9307 29.5054 47.5647 30.1388 48.349 30.1388H54.0608C53.8359 34.6053 53.4555 39.9173 52.8214 45.7407H40.6301C39.8472 45.7407 39.2125 46.3747 39.2125 47.1583C39.2125 47.9419 39.8472 48.5759 40.6301 48.5759H52.497C50.8378 62.3977 47.7389 78.6503 41.9657 93.1582C39.9493 95.6117 21.2894 118.998 24.9262 139.056V145.642V148.478V235.095H24.9282L24.9462 266.594C24.9662 266.722 27.2915 279.399 39.7725 279.399H101.512C113.999 279.399 116.325 266.723 116.366 266.354V235.095V232.26V145.642H116.36L116.346 139.307ZM54.3225 14.7205H46.8766C47.5828 8.32722 53.013 3.34018 59.5878 3.34018H81.6951C88.2766 3.34018 93.7135 8.32788 94.4223 14.7205H86.9645H54.3225ZM57.2138 17.5564H84.0738C84.0638 19.3618 84.0832 22.7651 84.2621 27.3029H57.0249C57.2051 22.7657 57.2224 19.3625 57.2138 17.5564ZM84.3901 30.1388C84.6144 34.6053 84.9909 39.9153 85.6196 45.7407H55.6687C56.296 39.9147 56.6738 34.6053 56.8974 30.1388H84.3901ZM101.512 276.563H39.7725C29.703 276.563 27.8175 266.537 27.7614 266.354V235.095H113.531L113.554 266.111C113.476 266.537 111.587 276.563 101.512 276.563ZM27.7614 166.223V148.478H113.531V232.26H27.7614V169.058H67.2112V166.222H27.7614V166.223ZM113.531 139.056V145.642H27.7587L27.7401 138.804C24.1927 119.118 44.0868 95.0411 44.2903 94.8008L44.5166 94.4177C50.4901 79.4879 53.6664 62.7415 55.3483 48.5759H85.9399C87.6225 62.7415 90.7988 79.4873 96.771 94.4177L96.9993 94.8008C97.2002 95.0417 117.098 119.119 113.531 139.056Z" fill="black"/>
<path d="M101.512 197.106H40.6301V199.942H101.512V197.106Z" fill="black"/>
<path d="M120.773 272.084C119.831 271.897 118.897 271.666 117.974 271.39L117.317 272.847C117.142 273.236 116.947 273.611 116.742 273.98C117.669 274.269 118.603 274.525 119.547 274.733C119.669 274.494 119.793 274.259 119.904 274.014L120.773 272.084Z" fill="black"/>
<path d="M90.2075 260.632L90.8622 259.178C90.0426 258.667 89.2524 258.12 88.4888 257.539L87.6199 259.467C87.5104 259.71 87.4096 259.954 87.3115 260.199C88.0944 260.771 88.9066 261.308 89.7429 261.813C89.8831 261.416 90.0326 261.021 90.2075 260.632Z" fill="black"/>
<path d="M120.773 272.083C119.831 271.897 118.897 271.666 117.974 271.39L185.22 122.177L186.151 120.108C186.232 119.927 186.306 119.746 186.38 119.565C189.349 112.21 185.992 103.73 178.697 100.446C176.762 99.5755 174.712 99.1337 172.61 99.1337C166.969 99.1337 161.817 102.347 159.305 107.361C159.216 107.539 159.122 107.714 159.04 107.896L158.109 109.963L90.8629 259.178C90.0433 258.667 89.2532 258.12 88.4896 257.539L87.6206 259.467C87.5112 259.71 87.4104 259.954 87.3123 260.199C88.0952 260.771 88.9074 261.308 89.7437 261.813C88.5763 265.116 88.6057 268.688 89.8585 272.003C91.2661 275.716 94.0326 278.659 97.6534 280.287C99.5943 281.163 101.647 281.606 103.756 281.606C109.167 281.606 114.134 278.648 116.742 273.98C117.669 274.269 118.603 274.525 119.547 274.733C119.669 274.494 119.793 274.259 119.904 274.014L120.773 272.083ZM115.573 250.421C114.203 250.421 112.819 250.141 111.505 249.547L103.365 245.88L104.527 243.293L112.667 246.96C116.439 248.665 120.992 246.77 122.809 242.743C123.691 240.788 123.796 238.622 123.11 236.642C122.431 234.69 121.063 233.168 119.258 232.354C114.058 230.009 111.828 223.665 114.282 218.214C116.741 212.763 122.977 210.237 128.173 212.574C131.947 214.273 136.501 212.381 138.315 208.351C140.127 204.321 138.535 199.661 134.761 197.96C132.235 196.823 130.329 194.714 129.392 192.017C128.463 189.349 128.6 186.438 129.782 183.819C130.962 181.198 133.05 179.163 135.664 178.09C138.301 177.005 141.141 177.033 143.671 178.169C147.444 179.869 151.995 177.978 153.812 173.95C155.628 169.923 154.037 165.262 150.261 163.559C145.06 161.215 142.581 155.421 144.733 150.643C145.783 148.314 147.769 146.576 150.326 145.749C152.835 144.937 155.584 145.11 158.067 146.232C159.877 147.049 161.921 147.067 163.83 146.299C165.759 145.517 167.302 144.022 168.171 142.088C169.044 140.157 169.141 138.012 168.447 136.049C167.764 134.108 166.394 132.591 164.584 131.776L156.445 128.111L157.609 125.524L165.747 129.189C168.271 130.327 170.18 132.427 171.123 135.106C172.06 137.759 171.929 140.654 170.758 143.254C169.584 145.856 167.501 147.871 164.892 148.927C162.262 149.997 159.423 149.954 156.902 148.818C155.055 147.986 153.035 147.853 151.199 148.448C149.414 149.024 148.036 150.217 147.32 151.807C145.808 155.159 147.652 159.272 151.428 160.974C156.628 163.32 158.857 169.663 156.397 175.115C153.942 180.567 147.708 183.1 142.507 180.755C140.701 179.944 138.657 179.93 136.741 180.712C134.802 181.51 133.248 183.026 132.368 184.981C131.487 186.937 131.381 189.105 132.067 191.086C132.749 193.038 134.118 194.562 135.924 195.374C141.124 197.716 143.357 204.061 140.9 209.515C138.439 214.971 132.204 217.502 127.008 215.16C123.231 213.456 118.68 215.352 116.867 219.379C115.053 223.406 116.648 228.066 120.422 229.769C122.946 230.906 124.851 233.016 125.788 235.711C126.715 238.38 126.574 241.29 125.394 243.909C123.559 247.98 119.619 250.421 115.573 250.421Z" fill="#F26A59"/>
<path d="M149.377 108.684C137.229 108.684 126.152 115.836 121.161 126.905L79.0869 220.27C75.6964 227.804 75.438 236.207 78.366 243.932C80.4397 249.412 83.9444 254.078 88.4903 257.539L155.309 109.27C153.363 108.887 151.383 108.684 149.377 108.684Z" fill="#FFDC70"/>
<path d="M126.715 272.672C138.858 272.672 149.928 265.519 154.916 254.45L196.985 161.077C200.38 153.549 200.638 145.15 197.715 137.425C195.64 131.947 192.136 127.281 187.591 123.817L120.773 272.083C122.721 272.469 124.705 272.672 126.715 272.672Z" fill="#FFDC70"/>
<path d="M200.367 136.422C198.022 130.23 194.005 124.985 188.784 121.166C188.768 121.202 188.755 121.236 188.74 121.272L187.592 123.817C192.137 127.281 195.641 131.948 197.716 137.425C200.639 145.15 200.381 153.549 196.986 161.077L154.917 254.45C149.929 265.519 138.859 272.671 126.716 272.671C124.705 272.671 122.722 272.469 120.774 272.083L119.904 274.014C119.793 274.259 119.669 274.494 119.547 274.732C121.893 275.246 124.287 275.508 126.716 275.508C139.973 275.508 152.056 267.7 157.503 255.617L199.573 162.244C203.277 154.024 203.559 144.854 200.367 136.422Z" fill="black"/>
<path d="M88.4896 257.539C83.9437 254.078 80.439 249.412 78.3653 243.932C75.4373 236.207 75.6956 227.804 79.0862 220.27L121.16 126.905C126.152 115.836 137.228 108.684 149.377 108.684C151.383 108.684 153.362 108.887 155.309 109.27L156.453 106.728C156.471 106.689 156.493 106.653 156.511 106.614C154.177 106.106 151.793 105.847 149.377 105.847C136.115 105.847 124.025 113.656 118.573 125.739L76.4991 219.106C72.8009 227.329 72.5206 236.503 75.7129 244.937C78.0616 251.136 82.0849 256.382 87.3128 260.199C87.4103 259.954 87.5118 259.709 87.6212 259.466L88.4896 257.539Z" fill="black"/>
<path d="M103.756 281.606C101.647 281.606 99.5942 281.163 97.6526 280.286C94.0318 278.658 91.266 275.716 89.8577 272.002C88.6049 268.688 88.5755 265.116 89.7429 261.812C88.9066 261.307 88.0944 260.77 87.3115 260.199C85.6696 264.317 85.6256 268.834 87.2067 273.007C88.8833 277.429 92.1777 280.933 96.4853 282.87C98.7939 283.913 101.243 284.441 103.755 284.441C110.437 284.441 116.544 280.651 119.546 274.732C118.602 274.524 117.668 274.269 116.74 273.979C114.133 278.648 109.167 281.606 103.756 281.606Z" fill="black"/>
<path d="M88.4895 257.539C89.253 258.119 90.0432 258.667 90.8628 259.178L158.108 109.962C157.185 109.687 156.251 109.456 155.309 109.271L88.4895 257.539Z" fill="black"/>
<path d="M172.611 99.1324C174.712 99.1324 176.762 99.5742 178.697 100.445C185.992 103.728 189.349 112.209 186.38 119.564C187.206 120.066 188.008 120.599 188.784 121.166C192.711 112.285 188.726 101.849 179.861 97.8582C177.555 96.821 175.117 96.2964 172.611 96.2964C165.7 96.2964 159.399 100.342 156.511 106.614C157.452 106.818 158.383 107.073 159.307 107.36C161.818 102.345 166.969 99.1324 172.611 99.1324Z" fill="black"/>
<path d="M117.974 271.39C118.898 271.666 119.831 271.897 120.773 272.084L187.592 123.817C186.829 123.236 186.038 122.688 185.219 122.177L117.974 271.39Z" fill="black"/>
<path d="M186.151 120.107L185.219 122.176C186.039 122.687 186.829 123.235 187.592 123.817L188.74 121.271C188.755 121.236 188.768 121.201 188.784 121.166C188.009 120.599 187.206 120.066 186.38 119.564C186.307 119.746 186.232 119.927 186.151 120.107Z" fill="black"/>
<path d="M155.309 109.27C156.25 109.456 157.185 109.687 158.108 109.961L159.04 107.894C159.121 107.712 159.216 107.537 159.304 107.36C158.381 107.073 157.45 106.818 156.509 106.614C156.491 106.653 156.47 106.689 156.452 106.728L155.309 109.27Z" fill="black"/>
<path d="M125.396 243.909C126.576 241.291 126.716 238.38 125.789 235.711C124.852 233.017 122.948 230.907 120.423 229.77C116.649 228.066 115.054 223.406 116.868 219.379C118.682 215.353 123.232 213.456 127.01 215.161C132.205 217.502 138.441 214.971 140.901 209.516C143.358 204.062 141.126 197.717 135.925 195.374C134.119 194.562 132.75 193.038 132.069 191.086C131.383 189.106 131.488 186.939 132.369 184.982C133.249 183.027 134.802 181.511 136.743 180.713C138.658 179.931 140.702 179.945 142.509 180.756C147.709 183.101 153.944 180.567 156.398 175.116C158.859 169.663 156.629 163.32 151.429 160.974C147.653 159.273 145.809 155.16 147.321 151.808C148.036 150.219 149.415 149.025 151.2 148.449C153.036 147.853 155.056 147.987 156.903 148.819C159.423 149.955 162.263 149.997 164.894 148.928C167.503 147.871 169.585 145.856 170.76 143.255C171.93 140.655 172.061 137.76 171.125 135.106C170.182 132.428 168.273 130.328 165.748 129.19L157.61 125.525L156.447 128.111L164.585 131.777C166.395 132.591 167.765 134.109 168.448 136.049C169.142 138.012 169.045 140.157 168.173 142.089C167.303 144.022 165.76 145.517 163.831 146.3C161.923 147.068 159.878 147.05 158.068 146.232C155.585 145.112 152.836 144.939 150.327 145.75C147.771 146.577 145.784 148.314 144.734 150.643C142.582 155.421 145.062 161.215 150.262 163.56C154.038 165.263 155.63 169.924 153.813 173.951C151.995 177.979 147.446 179.87 143.672 178.169C141.142 177.033 138.302 177.006 135.665 178.091C133.051 179.164 130.963 181.198 129.783 183.819C128.601 186.439 128.464 189.35 129.394 192.018C130.331 194.714 132.236 196.824 134.762 197.961C138.536 199.662 140.129 204.322 138.316 208.352C136.502 212.381 131.949 214.275 128.174 212.575C122.979 210.238 116.742 212.763 114.283 218.215C111.83 223.665 114.059 230.009 119.259 232.355C121.064 233.168 122.433 234.691 123.111 236.643C123.797 238.623 123.692 240.789 122.81 242.743C120.993 246.771 116.44 248.666 112.668 246.961L104.529 243.294L103.366 245.881L111.506 249.548C112.821 250.142 114.204 250.421 115.574 250.421C119.619 250.421 123.559 247.98 125.396 243.909Z" fill="#F9EF65"/>
</svg>
